<svg width="900" height="660" viewBox="0 0 900 660" xmlns="http://www.w3.org/2000/svg" font-family="'Segoe UI', system-ui, -apple-system, sans-serif">
  <defs>
    <linearGradient id="bg" x1="0" y1="0" x2="0" y2="1">
      <stop offset="0%" stop-color="#0d1117"/>
      <stop offset="100%" stop-color="#161b22"/>
    </linearGradient>
    <linearGradient id="sdkGrad" x1="0" y1="0" x2="1" y2="0">
      <stop offset="0%" stop-color="#1e1b4b"/>
      <stop offset="100%" stop-color="#1e1b4b" stop-opacity="0.6"/>
    </linearGradient>
    <linearGradient id="bscGrad" x1="0" y1="0" x2="1" y2="0">
      <stop offset="0%" stop-color="#042f2e"/>
      <stop offset="100%" stop-color="#042f2e" stop-opacity="0.6"/>
    </linearGradient>
    <linearGradient id="extGrad" x1="0" y1="0" x2="1" y2="0">
      <stop offset="0%" stop-color="#1c1007"/>
      <stop offset="100%" stop-color="#1c1007" stop-opacity="0.6"/>
    </linearGradient>
    <marker id="arr" markerWidth="7" markerHeight="7" refX="6" refY="3.5" orient="auto">
      <polygon points="0 0, 7 3.5, 0 7" fill="#4b5563"/>
    </marker>
    <filter id="glow" x="-20%" y="-20%" width="140%" height="140%">
      <feGaussianBlur stdDeviation="2" result="blur"/>
      <feMerge><feMergeNode in="blur"/><feMergeNode in="SourceGraphic"/></feMerge>
    </filter>
  </defs>

  <!-- Background -->
  <rect width="900" height="660" fill="url(#bg)" rx="12"/>

  <!-- ═══════════════════════════════════════════════════ -->
  <!-- LAYER 0 — YOUR APPLICATION                         -->
  <!-- ═══════════════════════════════════════════════════ -->
  <rect x="250" y="22" width="400" height="54" rx="8" fill="#21262d" stroke="#30363d" stroke-width="1"/>
  <text x="450" y="44" text-anchor="middle" font-size="10" fill="#8b949e" letter-spacing="1.5">YOUR APPLICATION</text>
  <text x="450" y="62" text-anchor="middle" font-size="14" fill="#e6edf3" font-weight="600">new GuardianSDK([ bsc(...) ])</text>

  <!-- Arrow 0 → 1 -->
  <line x1="450" y1="76" x2="450" y2="102" stroke="#4b5563" stroke-width="1.5" marker-end="url(#arr)" stroke-dasharray="4 2"/>

  <!-- ═══════════════════════════════════════════════════ -->
  <!-- LAYER 1 — @guardian-sdk/sdk                            -->
  <!-- ═══════════════════════════════════════════════════ -->
  <rect x="30" y="106" width="840" height="108" rx="8" fill="url(#sdkGrad)" stroke="#3730a3" stroke-width="1"/>
  <!-- Left accent bar -->
  <rect x="30" y="106" width="3" height="108" rx="2" fill="#6366f1"/>
  <!-- Package label -->
  <rect x="42" y="114" width="120" height="18" rx="4" fill="#312e81"/>
  <text x="102" y="127" text-anchor="middle" font-size="10" fill="#a5b4fc" font-weight="700" letter-spacing="0.5">@guardian-sdk/sdk</text>

  <!-- Card: GuardianSDK -->
  <rect x="55" y="138" width="210" height="62" rx="6" fill="#1e1b4b" stroke="#4f46e5" stroke-width="1"/>
  <text x="160" y="158" text-anchor="middle" font-size="12" fill="#a5b4fc" font-weight="700">GuardianSDK</text>
  <text x="160" y="174" text-anchor="middle" font-size="9.5" fill="#6366f1">getValidators · getDelegations</text>
  <text x="160" y="188" text-anchor="middle" font-size="9.5" fill="#6366f1">getBalances · estimateFee · sign</text>

  <!-- Card: Types & Interfaces -->
  <rect x="295" y="138" width="210" height="62" rx="6" fill="#1e1b4b" stroke="#4f46e5" stroke-width="1"/>
  <text x="400" y="158" text-anchor="middle" font-size="12" fill="#a5b4fc" font-weight="700">Types &amp; Interfaces</text>
  <text x="400" y="174" text-anchor="middle" font-size="9.5" fill="#6366f1">Validator · Delegation · Balance</text>
  <text x="400" y="188" text-anchor="middle" font-size="9.5" fill="#6366f1">Fee · Transaction · GuardianChain</text>

  <!-- Card: Errors & Cache -->
  <rect x="535" y="138" width="210" height="62" rx="6" fill="#1e1b4b" stroke="#4f46e5" stroke-width="1"/>
  <text x="640" y="158" text-anchor="middle" font-size="12" fill="#a5b4fc" font-weight="700">Errors &amp; Cache</text>
  <text x="640" y="174" text-anchor="middle" font-size="9.5" fill="#6366f1">GuardianError · ValidationError</text>
  <text x="640" y="188" text-anchor="middle" font-size="9.5" fill="#6366f1">ConfigError · InMemoryCache</text>

  <!-- Arrow 1 → 2 -->
  <line x1="450" y1="214" x2="450" y2="240" stroke="#4b5563" stroke-width="1.5" marker-end="url(#arr)" stroke-dasharray="4 2"/>
  <text x="460" y="231" font-size="9.5" fill="#4b5563">GuardianServiceContract</text>

  <!-- ═══════════════════════════════════════════════════ -->
  <!-- LAYER 2 — @guardian-sdk/bsc                            -->
  <!-- ═══════════════════════════════════════════════════ -->
  <rect x="30" y="244" width="840" height="306" rx="8" fill="url(#bscGrad)" stroke="#0f766e" stroke-width="1"/>
  <!-- Left accent bar -->
  <rect x="30" y="244" width="3" height="306" rx="2" fill="#0d9488"/>
  <!-- Package label -->
  <rect x="42" y="252" width="115" height="18" rx="4" fill="#134e4a"/>
  <text x="100" y="265" text-anchor="middle" font-size="10" fill="#5eead4" font-weight="700" letter-spacing="0.5">@guardian-sdk/bsc</text>

  <!-- bsc() factory box -->
  <rect x="325" y="272" width="250" height="48" rx="6" fill="#134e4a" stroke="#0d9488" stroke-width="1"/>
  <text x="450" y="292" text-anchor="middle" font-size="12" fill="#5eead4" font-weight="700">bsc({ rpcUrl })</text>
  <text x="450" y="308" text-anchor="middle" font-size="9.5" fill="#0d9488">chain factory · creates viem PublicClient</text>

  <!-- Arrow bsc → GuardianService -->
  <line x1="450" y1="320" x2="450" y2="336" stroke="#4b5563" stroke-width="1.5" marker-end="url(#arr)"/>

  <!-- GuardianService (full-width) -->
  <rect x="100" y="338" width="700" height="48" rx="6" fill="#0d9488"/>
  <text x="450" y="358" text-anchor="middle" font-size="13" fill="white" font-weight="700">GuardianService</text>
  <text x="450" y="374" text-anchor="middle" font-size="9.5" fill="#ccfbf1">facade — delegates every call to the appropriate child service</text>

  <!-- Branch lines from GuardianService to 5 services -->
  <!-- Service centers: 105, 245, 385, 525, 665 (width=120, gap=20, start=45 — adjusted) -->
  <!-- Let me use: x centers at 115, 258, 401, 544, 687 -->
  <line x1="450" y1="386" x2="450" y2="400" stroke="#4b5563" stroke-width="1"/>
  <line x1="115" y1="400" x2="785" y2="400" stroke="#4b5563" stroke-width="1"/>
  <line x1="115" y1="400" x2="115" y2="414" stroke="#4b5563" stroke-width="1" marker-end="url(#arr)"/>
  <line x1="258" y1="400" x2="258" y2="414" stroke="#4b5563" stroke-width="1" marker-end="url(#arr)"/>
  <line x1="401" y1="400" x2="401" y2="414" stroke="#4b5563" stroke-width="1" marker-end="url(#arr)"/>
  <line x1="544" y1="400" x2="544" y2="414" stroke="#4b5563" stroke-width="1" marker-end="url(#arr)"/>
  <line x1="785" y1="400" x2="785" y2="414" stroke="#4b5563" stroke-width="1" marker-end="url(#arr)"/>

  <!-- 5 Service boxes (width=116, height=48) -->
  <!-- x: 57, 200, 343, 486, 727 -->
  <rect x="57" y="416" width="116" height="48" rx="5" fill="#0a3d3a" stroke="#0d9488" stroke-width="1"/>
  <text x="115" y="437" text-anchor="middle" font-size="10.5" fill="#5eead4" font-weight="600">StakingService</text>
  <text x="115" y="452" text-anchor="middle" font-size="9" fill="#0d9488">validators · delegations</text>

  <rect x="200" y="416" width="116" height="48" rx="5" fill="#0a3d3a" stroke="#0d9488" stroke-width="1"/>
  <text x="258" y="437" text-anchor="middle" font-size="10.5" fill="#5eead4" font-weight="600">BalanceService</text>
  <text x="258" y="452" text-anchor="middle" font-size="9" fill="#0d9488">available · staked</text>

  <rect x="343" y="416" width="116" height="48" rx="5" fill="#0a3d3a" stroke="#0d9488" stroke-width="1"/>
  <text x="401" y="437" text-anchor="middle" font-size="10.5" fill="#5eead4" font-weight="600">FeeService</text>
  <text x="401" y="452" text-anchor="middle" font-size="9" fill="#0d9488">gas estimation</text>

  <rect x="486" y="416" width="116" height="48" rx="5" fill="#0a3d3a" stroke="#0d9488" stroke-width="1"/>
  <text x="544" y="437" text-anchor="middle" font-size="10.5" fill="#5eead4" font-weight="600">NonceService</text>
  <text x="544" y="452" text-anchor="middle" font-size="9" fill="#0d9488">tx nonce</text>

  <rect x="727" y="416" width="116" height="48" rx="5" fill="#0a3d3a" stroke="#0d9488" stroke-width="1"/>
  <text x="785" y="437" text-anchor="middle" font-size="10.5" fill="#5eead4" font-weight="600">SignService</text>
  <text x="785" y="452" text-anchor="middle" font-size="9" fill="#0d9488">sign · preHash · compile</text>

  <!-- Branch lines from StakingService to 2 RPC clients -->
  <line x1="115" y1="464" x2="115" y2="478" stroke="#4b5563" stroke-width="1"/>
  <line x1="258" y1="464" x2="258" y2="478" stroke="#4b5563" stroke-width="1"/>
  <line x1="401" y1="464" x2="401" y2="478" stroke="#4b5563" stroke-width="1"/>
  <line x1="115" y1="478" x2="401" y2="478" stroke="#4b5563" stroke-width="1"/>
  <line x1="220" y1="478" x2="220" y2="492" stroke="#4b5563" stroke-width="1" marker-end="url(#arr)"/>

  <line x1="115" y1="478" x2="115" y2="492" stroke="#4b5563" stroke-width="0.5" stroke-dasharray="2 2"/>

  <!-- BNBRpcClient arrow from StakingService only -->
  <line x1="258" y1="464" x2="258" y2="478" stroke="#4b5563" stroke-width="0.5" stroke-dasharray="2 2"/>
  <line x1="258" y1="478" x2="640" y2="478" stroke="#4b5563" stroke-width="1"/>
  <line x1="640" y1="478" x2="640" y2="492" stroke="#4b5563" stroke-width="1" marker-end="url(#arr)"/>

  <!-- RPC Client boxes -->
  <rect x="90" y="494" width="260" height="48" rx="5" fill="#0a3d3a" stroke="#0f766e" stroke-width="1.5"/>
  <text x="220" y="514" text-anchor="middle" font-size="10.5" fill="#5eead4" font-weight="700">StakingRpcClient</text>
  <text x="220" y="530" text-anchor="middle" font-size="9" fill="#0d9488">viem multicall · staking contracts</text>

  <rect x="550" y="494" width="260" height="48" rx="5" fill="#0a3d3a" stroke="#0f766e" stroke-width="1.5"/>
  <text x="680" y="514" text-anchor="middle" font-size="10.5" fill="#5eead4" font-weight="700">BNBRpcClient</text>
  <text x="680" y="530" text-anchor="middle" font-size="9" fill="#0d9488">axios · BNB Chain REST API</text>

  <!-- Arrows RPC → External -->
  <line x1="220" y1="542" x2="220" y2="566" stroke="#4b5563" stroke-width="1.5" marker-end="url(#arr)" stroke-dasharray="4 2"/>
  <line x1="680" y1="542" x2="680" y2="566" stroke="#4b5563" stroke-width="1.5" marker-end="url(#arr)" stroke-dasharray="4 2"/>

  <!-- ═══════════════════════════════════════════════════ -->
  <!-- LAYER 3 — EXTERNAL                                 -->
  <!-- ═══════════════════════════════════════════════════ -->
  <rect x="30" y="568" width="840" height="72" rx="8" fill="url(#extGrad)" stroke="#92400e" stroke-width="1"/>
  <rect x="30" y="568" width="3" height="72" rx="2" fill="#f59e0b"/>
  <rect x="42" y="576" width="72" height="18" rx="4" fill="#451a03"/>
  <text x="78" y="589" text-anchor="middle" font-size="10" fill="#fcd34d" font-weight="700" letter-spacing="0.5">EXTERNAL</text>

  <!-- BSC RPC box -->
  <rect x="90" y="594" width="260" height="38" rx="5" fill="#1c1007" stroke="#b45309" stroke-width="1"/>
  <text x="220" y="609" text-anchor="middle" font-size="10.5" fill="#fcd34d" font-weight="600">BSC RPC Node</text>
  <text x="220" y="624" text-anchor="middle" font-size="9" fill="#92400e">eth_call · eth_estimateGas · eth_getBalance</text>

  <!-- BNB API box -->
  <rect x="550" y="594" width="260" height="38" rx="5" fill="#1c1007" stroke="#b45309" stroke-width="1"/>
  <text x="680" y="609" text-anchor="middle" font-size="10.5" fill="#fcd34d" font-weight="600">BNB Chain REST API</text>
  <text x="680" y="624" text-anchor="middle" font-size="9" fill="#92400e">api.bnbchain.org · validator metadata</text>
</svg>
